<svg version="1.1" xmlns="http://www.w3.org/2000/svg" xmlns:xlink="http://www.w3.org/1999/xlink" width="512px" height="329.79px" viewBox="0,0,256,164.8875"><g fill="#ffffff" fill-rule="evenodd" stroke="none" stroke-width="1" stroke-linecap="butt" stroke-linejoin="miter" stroke-miterlimit="10" stroke-dasharray="" stroke-dashoffset="0" font-family="none" font-weight="none" font-size="none" text-anchor="none" style="mix-blend-mode: normal"><g transform="translate(0,-0.00375) scale(0.5,0.5)"><path d="M182.62,74.79c10.59,0 20.76,2.15 30.05,5.99c9.65,3.97 18.34,9.84 25.6,17.07c7.31826,7.31076 13.12837,15.98854 17.1,25.54c3.95474,9.55638 5.99008,19.79764 5.99,30.14c0,7.77 -1.15,15.35 -3.29,22.49c-1.76,5.9 -4.2,11.54 -7.23,16.79l27.92,32.71c2.12,2.31 1.98,5.94 -0.34,8.07l-21.81,19.9c-2.3,2.15 -5.95,1.97 -8.05,-0.33l-26.53,-31.48c-5.2,3.01 -10.78,5.48 -16.62,7.23l-0.2,0.05c-7.32883,2.19777 -14.93873,3.31618 -22.59,3.32c-10.57,0 -20.76,-2.16 -30.06,-5.99c-9.65,-3.99 -18.36,-9.87 -25.61,-17.07c-7.31758,-7.31311 -13.12456,-15.9947 -17.09,-25.55c-3.9576,-9.55551 -5.99306,-19.79735 -5.99,-30.14c0,-10.56 2.16,-20.75 5.99,-30.05c3.96452,-9.57108 9.76732,-18.2719 17.08,-25.61c7.25,-7.25 15.9,-13.12 25.53,-17.09c9.3,-3.85 19.5,-5.99 30.15,-5.99zM63.64,0h256.87c17.41,0 33.28,7.24 44.81,18.77c11.6,11.6 18.82,27.62 18.82,45v2.94l109.28,-48.41c6.69,-2.94 14.5,0.1 17.44,6.78c0.76,1.73 1.13,3.55 1.13,5.33l0.01,268.98c0,7.31 -5.94,13.25 -13.25,13.25c-2.28,0 -4.42,-0.58 -6.3,-1.6l-108.31,-50.06v5.05c0,17.33 -7.28,33.29 -18.88,44.9l-0.08,0.08c-11.55,11.52 -27.46,18.78 -44.67,18.78h-256.87c-17.28,0 -33.21,-7.19 -44.8,-18.76c-11.61,-11.63 -18.84,-27.54 -18.84,-45v-202.26c0,-17.53 7.18,-33.49 18.73,-45.05c11.55,-11.54 27.45,-18.72 44.91,-18.72zM385.07,95.23v137.06l100.44,46.42v-227.96zM320.51,26.49h-256.87c-9.92919,-0.0093 -19.45366,3.93434 -26.47,10.96c-6.75,6.75 -10.95,16.08 -10.95,26.32v202.26c0,10.18 4.22,19.45 10.95,26.17c6.86,6.86 16.28,11.1 26.47,11.1h256.87c10.14,0 19.52,-4.29 26.32,-11.1c6.83,-6.82 11.09,-16.12 11.09,-26.17v-202.26c0,-10.11 -4.24,-19.46 -11.04,-26.26c-6.76,-6.76 -16.11,-11.02 -26.37,-11.02zM182.77,97.77c30.52,0 55.27,24.77 55.27,55.29c0,30.52 -24.75,55.28 -55.27,55.28c-30.54,0 -55.3,-24.76 -55.3,-55.28c0,-30.52 24.76,-55.29 55.3,-55.29z"></path></g></g></svg>